<svg width="18" height="18" viewBox="0 0 18 18" fill="none" xmlns="http://www.w3.org/2000/svg">
<path d="M6.00002 13.1667L9.00002 10.1667L12 13.1667L13.1667 12.0001L10.1667 9.00008L13.1667 6.00008L12 4.83341L9.00002 7.83342L6.00002 4.83341L4.83335 6.00008L7.83335 9.00008L4.83335 12.0001L6.00002 13.1667ZM9.00002 17.3334C7.84724 17.3334 6.76391 17.1147 5.75002 16.6772C4.73613 16.2397 3.85419 15.6459 3.10419 14.8959C2.35419 14.1459 1.76044 13.264 1.32294 12.2501C0.885437 11.2362 0.666687 10.1529 0.666687 9.00008C0.666687 7.8473 0.885437 6.76397 1.32294 5.75008C1.76044 4.73619 2.35419 3.85425 3.10419 3.10425C3.85419 2.35425 4.73613 1.7605 5.75002 1.323C6.76391 0.885498 7.84724 0.666748 9.00002 0.666748C10.1528 0.666748 11.2361 0.885498 12.25 1.323C13.2639 1.7605 14.1459 2.35425 14.8959 3.10425C15.6459 3.85425 16.2396 4.73619 16.6771 5.75008C17.1146 6.76397 17.3334 7.8473 17.3334 9.00008C17.3334 10.1529 17.1146 11.2362 16.6771 12.2501C16.2396 13.264 15.6459 14.1459 14.8959 14.8959C14.1459 15.6459 13.2639 16.2397 12.25 16.6772C11.2361 17.1147 10.1528 17.3334 9.00002 17.3334ZM9.00002 15.6667C10.8611 15.6667 12.4375 15.0209 13.7292 13.7292C15.0209 12.4376 15.6667 10.8612 15.6667 9.00008C15.6667 7.13897 15.0209 5.56258 13.7292 4.27091C12.4375 2.97925 10.8611 2.33341 9.00002 2.33341C7.13891 2.33341 5.56252 2.97925 4.27085 4.27091C2.97919 5.56258 2.33335 7.13897 2.33335 9.00008C2.33335 10.8612 2.97919 12.4376 4.27085 13.7292C5.56252 15.0209 7.13891 15.6667 9.00002 15.6667Z" fill="#865DFF"/>
</svg>
